<svg width="609" height="104" viewBox="0 0 609 104" fill="none" xmlns="http://www.w3.org/2000/svg">
<path d="M42.7024 5.096C42.4528 5.2624 42.1616 5.72 42.0368 6.0944C41.8496 6.7184 36.816 34.4656 36.816 34.944C36.816 35.0688 35.36 35.152 32.5104 35.152C27.5808 35.152 26.7904 35.3184 25.272 36.6496C24.232 37.5648 21.528 41.6 21.0912 42.9104C20.8416 43.6592 20.8 47.32 20.8416 68.744L20.904 93.704L21.5488 95.056C22.36 96.7824 23.8576 98.28 25.584 99.0912L26.936 99.736H52H77.064L78.416 99.0912C80.1424 98.28 81.64 96.7824 82.4512 95.056L83.096 93.704V68.432V43.16L82.4928 42.016C81.536 40.1856 79.56 37.3776 78.7488 36.6496C77.3968 35.464 76.8352 35.2768 74.3184 35.1936C72.0512 35.1104 71.968 35.0896 72.072 34.6528C72.4256 33.0928 74.88 19.4896 74.88 19.136C74.88 18.6992 72.5712 15.184 69.7216 11.232L68.3072 9.256L56.2432 7.0304C49.6288 5.8032 43.9712 4.8048 43.68 4.784C43.3888 4.784 42.952 4.9296 42.7024 5.096ZM55.848 11.3776L65.624 13.208L67.9952 16.5152L70.3664 19.8016L68.4112 30.7008L66.456 41.6H53.3104C43.264 41.6 40.144 41.5376 40.144 41.3504C40.144 41.2256 41.4128 34.112 42.952 25.5632C44.4912 16.9936 45.76 9.9008 45.76 9.776C45.76 9.672 45.8224 9.568 45.9264 9.568C46.0096 9.5472 50.4816 10.3792 55.848 11.3776ZM35.984 39.416C35.984 39.4576 35.88 39.9776 35.7552 40.56L35.5264 41.6H33.8832C32.4064 41.6 32.1568 41.6624 31.72 42.12C30.9712 42.848 30.9712 44.512 31.72 45.24L32.2192 45.76H52H71.7808L72.28 45.24C72.696 44.8448 72.8 44.5328 72.8 43.7216C72.8 42.5152 72.3632 41.8496 71.448 41.6416L70.824 41.496L70.9904 40.3936L71.1776 39.312L72.7584 39.3328C75.296 39.3328 75.5872 39.52 77.168 41.912C77.9376 43.056 78.6656 44.304 78.7904 44.6992C79.1232 45.6144 79.144 90.48 78.832 92.144C78.5824 93.496 77.8544 94.4944 76.6896 95.1184L75.816 95.576H52.208C33.6336 95.576 28.4336 95.5136 27.8512 95.3056C27.4352 95.16 26.7904 94.744 26.416 94.3696C24.9808 92.9552 25.064 94.744 25.0016 68.952C24.96 51.896 25.0016 45.4272 25.1888 44.824C25.3136 44.3664 26.0416 43.056 26.8112 41.912C27.9136 40.248 28.3504 39.7904 28.912 39.5824C29.5984 39.3536 35.984 39.1872 35.984 39.416Z" fill="black"/>
<path d="M47.736 14.4768C47.5488 15.5792 47.4656 16.536 47.5488 16.6192C47.7152 16.7648 63.44 19.7808 63.9808 19.76C64.272 19.76 65.0208 15.8288 64.7712 15.6C64.6048 15.4544 48.88 12.4592 48.3392 12.48C48.1936 12.48 47.944 13.3536 47.736 14.4768Z" fill="black"/>
<path d="M45.656 22.7968C45.4688 23.8992 45.3856 24.856 45.4688 24.9392C45.6352 25.0848 65.4992 28.7248 66.0608 28.704C66.352 28.704 67.1008 24.7728 66.8512 24.544C66.6848 24.3984 46.8208 20.7792 46.2592 20.8C46.1136 20.8 45.864 21.6736 45.656 22.7968Z" fill="black"/>
<path d="M43.992 31.1168C43.8048 32.2192 43.7216 33.176 43.8048 33.2592C43.9712 33.4048 63.856 37.0448 64.3968 37.024C64.688 37.024 65.4368 33.0928 65.1872 32.864C65.0208 32.7184 45.1568 29.0992 44.5952 29.12C44.4496 29.12 44.2 29.9936 43.992 31.1168Z" fill="black"/>
<path d="M47.84 50.2112C39.936 51.896 33.9248 57.6368 31.6992 65.6864C31.2 67.4544 31.0752 72.4672 31.4704 74.5888C32.968 82.5344 38.8544 88.7744 46.9664 91.0208C48.7344 91.52 53.7472 91.6448 55.8688 91.2496C63.8144 89.752 70.0752 83.8656 72.3008 75.7536C72.7584 74.1312 72.9248 69.264 72.592 67.2672C71.3024 59.1552 65.3744 52.7488 57.0336 50.4192C55.3904 49.9408 49.6704 49.8368 47.84 50.2112ZM53.352 56.8672C54.0384 57.5744 54.1216 58.3856 54.0384 65.208C53.976 72.0304 53.9344 72.176 52.4784 72.5712C51.4384 72.8624 38.0224 72.8624 36.9824 72.592C36.0256 72.3216 35.568 71.6976 35.568 70.72C35.568 69.7424 36.0256 69.1184 36.9824 68.848C37.4192 68.7232 40.2896 68.64 43.8464 68.64H49.92V63.5856C49.92 58.2816 50.0656 57.2 50.8144 56.68C51.5216 56.2016 52.7696 56.2848 53.352 56.8672Z" fill="black"/>
<path d="M103.44 99.576C101.584 99.576 100.08 99.032 98.928 97.944C97.84 96.792 97.296 95.256 97.296 93.336V37.176C97.296 35.32 97.808 33.88 98.832 32.856C99.92 31.832 101.392 31.32 103.248 31.32H126.864C134.096 31.32 139.728 33.144 143.76 36.792C147.792 40.376 149.808 45.432 149.808 51.96C149.808 58.488 147.792 63.576 143.76 67.224C139.728 70.872 134.096 72.696 126.864 72.696H109.68V93.336C109.68 95.256 109.104 96.792 107.952 97.944C106.864 99.032 105.36 99.576 103.44 99.576ZM125.328 63.192C133.84 63.192 138.096 59.48 138.096 52.056C138.096 44.632 133.84 40.92 125.328 40.92H109.68V63.192H125.328Z" fill="black"/>
<path d="M195.921 51.096C197.777 51.096 199.249 51.608 200.337 52.632C201.425 53.656 201.969 55.032 201.969 56.76V94.008C201.969 95.672 201.393 97.016 200.241 98.04C199.153 99.064 197.713 99.576 195.921 99.576C194.193 99.576 192.817 99.096 191.793 98.136C190.769 97.176 190.257 95.864 190.257 94.2V91.8C188.785 94.36 186.801 96.344 184.305 97.752C181.809 99.096 178.993 99.768 175.857 99.768C164.337 99.768 158.577 93.304 158.577 80.376V56.76C158.577 55.032 159.121 53.656 160.209 52.632C161.297 51.608 162.737 51.096 164.529 51.096C166.385 51.096 167.857 51.608 168.945 52.632C170.033 53.656 170.577 55.032 170.577 56.76V80.472C170.577 83.8 171.249 86.264 172.593 87.864C173.937 89.464 176.049 90.264 178.929 90.264C182.257 90.264 184.913 89.176 186.897 87C188.945 84.76 189.969 81.816 189.969 78.168V56.76C189.969 55.032 190.513 53.656 191.601 52.632C192.689 51.608 194.129 51.096 195.921 51.096Z" fill="black"/>
<path d="M241.723 50.904C247.355 50.904 251.547 52.504 254.299 55.704C257.051 58.904 258.427 63.736 258.427 70.2V93.816C258.427 95.608 257.883 97.016 256.795 98.04C255.771 99.064 254.331 99.576 252.475 99.576C250.619 99.576 249.147 99.064 248.059 98.04C246.971 97.016 246.427 95.608 246.427 93.816V70.872C246.427 67.224 245.723 64.568 244.315 62.904C242.971 61.24 240.827 60.408 237.883 60.408C234.427 60.408 231.643 61.496 229.531 63.672C227.483 65.848 226.459 68.76 226.459 72.408V93.816C226.459 95.608 225.915 97.016 224.827 98.04C223.739 99.064 222.267 99.576 220.411 99.576C218.555 99.576 217.083 99.064 215.995 98.04C214.971 97.016 214.459 95.608 214.459 93.816V56.664C214.459 55 215.003 53.656 216.091 52.632C217.179 51.608 218.651 51.096 220.507 51.096C222.171 51.096 223.515 51.608 224.539 52.632C225.627 53.592 226.171 54.872 226.171 56.472V59.064C227.771 56.44 229.915 54.424 232.603 53.016C235.291 51.608 238.331 50.904 241.723 50.904Z" fill="black"/>
<path d="M291.447 99.768C286.775 99.768 282.647 98.776 279.063 96.792C275.543 94.808 272.823 91.992 270.903 88.344C268.983 84.696 268.023 80.44 268.023 75.576C268.023 70.712 269.015 66.424 270.999 62.712C273.047 58.936 275.895 56.024 279.543 53.976C283.191 51.928 287.383 50.904 292.119 50.904C294.615 50.904 297.111 51.256 299.607 51.96C302.167 52.664 304.407 53.624 306.327 54.84C308.375 56.184 309.399 57.88 309.399 59.928C309.399 61.336 309.047 62.488 308.343 63.384C307.703 64.216 306.839 64.632 305.751 64.632C305.047 64.632 304.311 64.472 303.543 64.152C302.775 63.832 302.007 63.448 301.239 63C299.831 62.168 298.487 61.528 297.207 61.08C295.927 60.568 294.455 60.312 292.791 60.312C288.823 60.312 285.751 61.624 283.575 64.248C281.463 66.808 280.407 70.52 280.407 75.384C280.407 80.184 281.463 83.896 283.575 86.52C285.751 89.08 288.823 90.36 292.791 90.36C294.391 90.36 295.799 90.136 297.015 89.688C298.295 89.176 299.703 88.504 301.239 87.672C302.199 87.096 303.031 86.68 303.735 86.424C304.439 86.104 305.143 85.944 305.847 85.944C306.871 85.944 307.735 86.392 308.439 87.288C309.143 88.184 309.495 89.304 309.495 90.648C309.495 91.736 309.239 92.696 308.727 93.528C308.279 94.296 307.511 95 306.423 95.64C304.439 96.92 302.135 97.944 299.511 98.712C296.887 99.416 294.199 99.768 291.447 99.768Z" fill="black"/>
<path d="M344.946 50.904C355.954 50.904 361.458 57.336 361.458 70.2V93.816C361.458 95.608 360.914 97.016 359.826 98.04C358.802 99.064 357.362 99.576 355.506 99.576C353.65 99.576 352.178 99.064 351.09 98.04C350.002 97.016 349.458 95.608 349.458 93.816V70.2C349.458 66.808 348.754 64.344 347.346 62.808C346.002 61.208 343.858 60.408 340.914 60.408C337.458 60.408 334.674 61.496 332.562 63.672C330.514 65.848 329.49 68.76 329.49 72.408V93.816C329.49 95.608 328.946 97.016 327.858 98.04C326.77 99.064 325.298 99.576 323.442 99.576C321.586 99.576 320.114 99.064 319.026 98.04C318.002 97.016 317.49 95.608 317.49 93.816V36.408C317.49 34.744 318.034 33.4 319.122 32.376C320.274 31.352 321.746 30.84 323.538 30.84C325.33 30.84 326.77 31.32 327.858 32.28C328.946 33.24 329.49 34.552 329.49 36.216V58.584C331.09 56.088 333.202 54.2 335.826 52.92C338.514 51.576 341.554 50.904 344.946 50.904Z" fill="black"/>
<path d="M404.942 99.864C398.414 99.864 392.686 98.456 387.758 95.64C382.894 92.824 379.15 88.792 376.526 83.544C373.902 78.296 372.59 72.152 372.59 65.112C372.59 58.072 373.902 51.96 376.526 46.776C379.15 41.528 382.894 37.496 387.758 34.68C392.686 31.864 398.414 30.456 404.942 30.456C409.166 30.456 413.134 31.096 416.846 32.376C420.558 33.592 423.854 35.384 426.734 37.752C427.566 38.392 428.142 39.064 428.462 39.768C428.782 40.472 428.942 41.336 428.942 42.36C428.942 43.768 428.558 44.952 427.79 45.912C427.022 46.872 426.094 47.352 425.006 47.352C423.726 47.352 422.414 46.904 421.07 46.008C418.318 43.96 415.758 42.552 413.39 41.784C411.022 40.952 408.398 40.536 405.518 40.536C398.862 40.536 393.806 42.616 390.35 46.776C386.958 50.936 385.262 57.048 385.262 65.112C385.262 73.24 386.958 79.384 390.35 83.544C393.806 87.704 398.862 89.784 405.518 89.784C408.27 89.784 410.798 89.368 413.102 88.536C415.47 87.704 418.126 86.296 421.07 84.312C421.71 83.928 422.35 83.608 422.99 83.352C423.63 83.096 424.302 82.968 425.006 82.968C426.094 82.968 427.022 83.448 427.79 84.408C428.558 85.368 428.942 86.552 428.942 87.96C428.942 88.92 428.782 89.784 428.462 90.552C428.142 91.256 427.566 91.928 426.734 92.568C423.854 94.936 420.558 96.76 416.846 98.04C413.134 99.256 409.166 99.864 404.942 99.864Z" fill="black"/>
<path d="M444.661 99.576C442.933 99.576 441.493 99.096 440.341 98.136C439.253 97.112 438.709 95.672 438.709 93.816V36.504C438.709 34.648 439.253 33.24 440.341 32.28C441.493 31.32 442.933 30.84 444.661 30.84C446.389 30.84 447.829 31.32 448.981 32.28C450.133 33.24 450.709 34.648 450.709 36.504V93.816C450.709 95.672 450.133 97.112 448.981 98.136C447.829 99.096 446.389 99.576 444.661 99.576Z" fill="black"/>
<path d="M484.492 99.768C479.692 99.768 475.468 98.776 471.82 96.792C468.236 94.808 465.452 91.96 463.468 88.248C461.484 84.536 460.492 80.216 460.492 75.288C460.492 70.36 461.484 66.072 463.468 62.424C465.452 58.712 468.236 55.864 471.82 53.88C475.468 51.896 479.692 50.904 484.492 50.904C489.292 50.904 493.484 51.896 497.068 53.88C500.716 55.864 503.5 58.712 505.42 62.424C507.404 66.072 508.396 70.36 508.396 75.288C508.396 80.216 507.404 84.536 505.42 88.248C503.5 91.96 500.716 94.808 497.068 96.792C493.484 98.776 489.292 99.768 484.492 99.768ZM484.396 90.456C488.3 90.456 491.276 89.176 493.324 86.616C495.372 84.056 496.396 80.28 496.396 75.288C496.396 70.36 495.372 66.616 493.324 64.056C491.276 61.432 488.332 60.12 484.492 60.12C480.652 60.12 477.676 61.432 475.564 64.056C473.516 66.616 472.492 70.36 472.492 75.288C472.492 80.28 473.516 84.056 475.564 86.616C477.612 89.176 480.556 90.456 484.396 90.456Z" fill="black"/>
<path d="M539.134 99.768C534.462 99.768 530.335 98.776 526.75 96.792C523.23 94.808 520.51 91.992 518.59 88.344C516.67 84.696 515.71 80.44 515.71 75.576C515.71 70.712 516.702 66.424 518.686 62.712C520.734 58.936 523.582 56.024 527.23 53.976C530.879 51.928 535.07 50.904 539.806 50.904C542.302 50.904 544.798 51.256 547.294 51.96C549.854 52.664 552.094 53.624 554.014 54.84C556.062 56.184 557.086 57.88 557.086 59.928C557.086 61.336 556.734 62.488 556.03 63.384C555.39 64.216 554.527 64.632 553.439 64.632C552.734 64.632 551.999 64.472 551.23 64.152C550.462 63.832 549.694 63.448 548.926 63C547.518 62.168 546.174 61.528 544.895 61.08C543.615 60.568 542.142 60.312 540.478 60.312C536.51 60.312 533.438 61.624 531.262 64.248C529.15 66.808 528.094 70.52 528.094 75.384C528.094 80.184 529.15 83.896 531.262 86.52C533.438 89.08 536.51 90.36 540.478 90.36C542.078 90.36 543.486 90.136 544.702 89.688C545.982 89.176 547.39 88.504 548.926 87.672C549.886 87.096 550.718 86.68 551.422 86.424C552.126 86.104 552.83 85.944 553.534 85.944C554.558 85.944 555.422 86.392 556.126 87.288C556.831 88.184 557.182 89.304 557.182 90.648C557.182 91.736 556.926 92.696 556.414 93.528C555.966 94.296 555.199 95 554.111 95.64C552.126 96.92 549.822 97.944 547.198 98.712C544.574 99.416 541.887 99.768 539.134 99.768Z" fill="black"/>
<path d="M606.938 89.688C608.217 90.904 608.857 92.28 608.857 93.816C608.857 95.288 608.314 96.6 607.225 97.752C606.202 98.904 604.985 99.48 603.577 99.48C602.169 99.48 600.857 98.904 599.641 97.752L577.177 77.4V93.816C577.177 95.672 576.602 97.08 575.449 98.04C574.297 99 572.857 99.48 571.129 99.48C569.401 99.48 567.961 99 566.809 98.04C565.721 97.08 565.177 95.672 565.177 93.816V36.504C565.177 34.648 565.721 33.24 566.809 32.28C567.961 31.32 569.401 30.84 571.129 30.84C572.857 30.84 574.297 31.32 575.449 32.28C576.602 33.24 577.177 34.648 577.177 36.504V72.6L597.721 52.92C598.874 51.768 600.186 51.192 601.658 51.192C603.129 51.192 604.409 51.736 605.497 52.824C606.586 53.912 607.129 55.192 607.129 56.664C607.129 58.136 606.521 59.48 605.305 60.696L590.233 74.712L606.938 89.688Z" fill="black"/>
</svg>
