<svg width="215" height="37" viewBox="0 0 215 37" fill="none" xmlns="http://www.w3.org/2000/svg">
<path d="M15.0791 1.7995C14.9909 1.85826 14.8881 2.01984 14.844 2.15205C14.7779 2.3724 13.0005 12.1705 13.0005 12.3394C13.0005 12.3835 12.4863 12.4129 11.4801 12.4129C9.73933 12.4129 9.46022 12.4716 8.92404 12.9417C8.5568 13.2649 7.60196 14.6898 7.44772 15.1525C7.35958 15.4169 7.34489 16.7097 7.35958 24.2749L7.38161 33.0888L7.6093 33.5662C7.89576 34.1758 8.42459 34.7047 9.03422 34.9911L9.51163 35.2188H18.3622H27.2129L27.6903 34.9911C28.2999 34.7047 28.8287 34.1758 29.1152 33.5662L29.3429 33.0888V24.1647V15.2407L29.1299 14.8367C28.792 14.1903 28.0942 13.1988 27.8078 12.9417C27.3304 12.5231 27.1321 12.457 26.2433 12.4276C25.4427 12.3982 25.4134 12.3908 25.4501 12.2366C25.5749 11.6857 26.4416 6.88217 26.4416 6.75731C26.4416 6.60306 25.6264 5.36177 24.6201 3.96624L24.1207 3.26848L19.8606 2.48257C17.5249 2.04922 15.5271 1.69667 15.4243 1.68932C15.3215 1.68932 15.1672 1.74074 15.0791 1.7995ZM19.7211 4.01766L23.1732 4.66401L24.0105 5.83185L24.8478 6.99234L24.1574 10.8411L23.467 14.6898H18.825C15.2774 14.6898 14.1756 14.6678 14.1756 14.6017C14.1756 14.5576 14.6237 12.0456 15.1672 9.02688C15.7107 6.00078 16.1588 3.49617 16.1588 3.4521C16.1588 3.41537 16.1808 3.37865 16.2175 3.37865C16.2469 3.37131 17.8261 3.6651 19.7211 4.01766ZM12.7067 13.9186C12.7067 13.9333 12.6699 14.1169 12.6259 14.3226L12.5451 14.6898H11.9648C11.4433 14.6898 11.3552 14.7118 11.201 14.8734C10.9365 15.1305 10.9365 15.7181 11.201 15.9752L11.3772 16.1588H18.3622H25.3472L25.5235 15.9752C25.6704 15.8356 25.7071 15.7254 25.7071 15.439C25.7071 15.013 25.5529 14.7779 25.2297 14.7045L25.0094 14.6531L25.0681 14.2638L25.1342 13.8819L25.6925 13.8892C26.5885 13.8892 26.6914 13.9553 27.2496 14.8C27.5213 15.2039 27.7784 15.6446 27.8225 15.7842C27.94 16.1074 27.9473 31.9503 27.8372 32.5379C27.749 33.0153 27.492 33.3679 27.0806 33.5882L26.7722 33.7498H18.4357C11.8767 33.7498 10.0405 33.7278 9.83481 33.6543C9.68791 33.6029 9.46022 33.456 9.32801 33.3238C8.82121 32.8244 8.85059 33.456 8.82856 24.3484C8.81387 18.3255 8.82856 16.0413 8.89466 15.8283C8.93873 15.6667 9.1958 15.2039 9.46756 14.8C9.85684 14.2124 10.0111 14.0508 10.2094 13.9773C10.4518 13.8966 12.7067 13.8378 12.7067 13.9186Z" fill="white"/>
<path d="M16.8565 5.11205C16.7904 5.50133 16.7611 5.83919 16.7904 5.86857C16.8492 5.91999 22.4019 6.985 22.5929 6.97765C22.6957 6.97765 22.9602 5.58947 22.872 5.50867C22.8133 5.45726 17.2605 4.39959 17.0695 4.40694C17.0181 4.40694 16.93 4.71542 16.8565 5.11205Z" fill="white"/>
<path d="M16.122 8.05C16.0559 8.43928 16.0266 8.77715 16.0559 8.80653C16.1147 8.85794 23.1291 10.1433 23.3274 10.136C23.4302 10.136 23.6946 8.74777 23.6065 8.66697C23.5477 8.61556 16.5334 7.33755 16.3351 7.34489C16.2836 7.34489 16.1955 7.65338 16.122 8.05Z" fill="white"/>
<path d="M15.5344 10.988C15.4683 11.3773 15.4389 11.7151 15.4683 11.7445C15.5271 11.7959 22.5488 13.0813 22.7397 13.0739C22.8426 13.0739 23.107 11.6858 23.0189 11.605C22.9601 11.5535 15.9457 10.2755 15.7474 10.2829C15.696 10.2829 15.6079 10.5914 15.5344 10.988Z" fill="white"/>
<path d="M16.8932 17.7306C14.1021 18.3255 11.9795 20.3527 11.1936 23.1952C11.0173 23.8195 10.9732 25.5897 11.1128 26.3388C11.6416 29.1446 13.7202 31.3481 16.5847 32.1413C17.209 32.3176 18.9792 32.3617 19.7283 32.2221C22.5341 31.6933 24.7449 29.6147 25.5308 26.7501C25.6924 26.1772 25.7512 24.4585 25.6336 23.7534C25.1783 20.8889 23.085 18.6267 20.1397 17.8041C19.5594 17.6351 17.5396 17.5984 16.8932 17.7306ZM18.8396 20.081C19.082 20.3307 19.1114 20.6172 19.082 23.0263C19.06 25.4354 19.0453 25.4868 18.5311 25.6264C18.1639 25.7292 13.4264 25.7292 13.0592 25.6337C12.7213 25.5382 12.5597 25.3179 12.5597 24.9727C12.5597 24.6275 12.7213 24.4071 13.0592 24.3116C13.2134 24.2676 14.227 24.2382 15.483 24.2382H17.6277V22.4534C17.6277 20.5804 17.6791 20.1985 17.9435 20.0149C18.1933 19.8459 18.634 19.8753 18.8396 20.081Z" fill="white"/>
<path d="M36.5267 35.1623C35.8714 35.1623 35.3403 34.9702 34.9335 34.586C34.5493 34.1792 34.3572 33.6368 34.3572 32.9589V13.1276C34.3572 12.4722 34.538 11.9637 34.8996 11.6021C35.2838 11.2405 35.8036 11.0597 36.459 11.0597H44.7982C47.352 11.0597 49.3408 11.7038 50.7646 12.992C52.1883 14.2576 52.9002 16.043 52.9002 18.3481C52.9002 20.6533 52.1883 22.45 50.7646 23.7382C49.3408 25.0264 47.352 25.6704 44.7982 25.6704H38.7302V32.9589C38.7302 33.6368 38.5268 34.1792 38.12 34.586C37.7358 34.9702 37.2047 35.1623 36.5267 35.1623ZM44.2558 22.3144C47.2616 22.3144 48.7645 21.0036 48.7645 18.382C48.7645 15.7605 47.2616 14.4497 44.2558 14.4497H38.7302V22.3144H44.2558Z" fill="white"/>
<path d="M69.1837 18.043C69.8391 18.043 70.3589 18.2238 70.7431 18.5854C71.1273 18.947 71.3194 19.4329 71.3194 20.0431V33.1961C71.3194 33.7837 71.116 34.2583 70.7092 34.6199C70.325 34.9815 69.8165 35.1623 69.1837 35.1623C68.5735 35.1623 68.0876 34.9928 67.726 34.6538C67.3644 34.3148 67.1836 33.8515 67.1836 33.2639V32.4165C66.6638 33.3204 65.9632 34.021 65.0818 34.5182C64.2004 34.9928 63.2061 35.2301 62.0987 35.2301C58.0307 35.2301 55.9967 32.9476 55.9967 28.3824V20.0431C55.9967 19.4329 56.1888 18.947 56.573 18.5854C56.9572 18.2238 57.4657 18.043 58.0985 18.043C58.7539 18.043 59.2737 18.2238 59.6579 18.5854C60.0421 18.947 60.2342 19.4329 60.2342 20.0431V28.4163C60.2342 29.5915 60.4715 30.4616 60.9461 31.0266C61.4207 31.5916 62.1665 31.8741 63.1835 31.8741C64.3586 31.8741 65.2965 31.4899 65.9971 30.7215C66.7203 29.9305 67.0819 28.8909 67.0819 27.6027V20.0431C67.0819 19.4329 67.274 18.947 67.6582 18.5854C68.0424 18.2238 68.5509 18.043 69.1837 18.043Z" fill="white"/>
<path d="M85.3572 17.9752C87.346 17.9752 88.8263 18.5402 89.7981 19.6702C90.7698 20.8002 91.2557 22.5065 91.2557 24.7891V33.1283C91.2557 33.7611 91.0636 34.2583 90.6794 34.6199C90.3178 34.9815 89.8094 35.1623 89.154 35.1623C88.4986 35.1623 87.9788 34.9815 87.5946 34.6199C87.2104 34.2583 87.0183 33.7611 87.0183 33.1283V25.0264C87.0183 23.7382 86.7697 22.8003 86.2725 22.2127C85.7979 21.6251 85.0408 21.3313 84.0012 21.3313C82.7808 21.3313 81.7978 21.7155 81.052 22.4839C80.3288 23.2523 79.9672 24.2806 79.9672 25.5687V33.1283C79.9672 33.7611 79.7751 34.2583 79.3909 34.6199C79.0067 34.9815 78.4869 35.1623 77.8315 35.1623C77.1761 35.1623 76.6563 34.9815 76.2721 34.6199C75.9105 34.2583 75.7297 33.7611 75.7297 33.1283V20.0092C75.7297 19.4216 75.9218 18.947 76.306 18.5854C76.6902 18.2238 77.21 18.043 77.8654 18.043C78.453 18.043 78.9276 18.2238 79.2892 18.5854C79.6734 18.9244 79.8655 19.3764 79.8655 19.9414V20.8567C80.4305 19.9301 81.1876 19.2182 82.1368 18.721C83.0859 18.2238 84.1594 17.9752 85.3572 17.9752Z" fill="white"/>
<path d="M102.916 35.2301C101.266 35.2301 99.8084 34.8798 98.5428 34.1792C97.2998 33.4786 96.3393 32.4843 95.6614 31.1961C94.9834 29.9079 94.6444 28.405 94.6444 26.6874C94.6444 24.9699 94.9947 23.4557 95.6953 22.1449C96.4184 20.8115 97.4241 19.7832 98.7123 19.06C100 18.3368 101.481 17.9752 103.153 17.9752C104.035 17.9752 104.916 18.0995 105.797 18.3481C106.701 18.5967 107.492 18.9357 108.17 19.3651C108.893 19.8397 109.255 20.4386 109.255 21.1618C109.255 21.659 109.131 22.0658 108.882 22.3822C108.656 22.676 108.351 22.8229 107.967 22.8229C107.718 22.8229 107.458 22.7664 107.187 22.6534C106.916 22.5404 106.645 22.4048 106.374 22.2466C105.876 21.9528 105.402 21.7268 104.95 21.5686C104.498 21.3878 103.978 21.2974 103.39 21.2974C101.989 21.2974 100.904 21.7607 100.136 22.6873C99.3903 23.5913 99.0174 24.9021 99.0174 26.6196C99.0174 28.3146 99.3903 29.6254 100.136 30.552C100.904 31.456 101.989 31.908 103.39 31.908C103.955 31.908 104.453 31.8289 104.882 31.6707C105.334 31.4899 105.831 31.2526 106.374 30.9588C106.713 30.7554 107.006 30.6085 107.255 30.5181C107.504 30.4051 107.752 30.3486 108.001 30.3486C108.362 30.3486 108.667 30.5068 108.916 30.8232C109.165 31.1396 109.289 31.5351 109.289 32.0097C109.289 32.3939 109.199 32.7329 109.018 33.0266C108.86 33.2978 108.588 33.5464 108.204 33.7724C107.504 34.2244 106.69 34.586 105.763 34.8572C104.837 35.1058 103.888 35.2301 102.916 35.2301Z" fill="white"/>
<path d="M121.807 17.9752C125.695 17.9752 127.638 20.2465 127.638 24.7891V33.1283C127.638 33.7611 127.446 34.2583 127.062 34.6199C126.7 34.9815 126.192 35.1623 125.536 35.1623C124.881 35.1623 124.361 34.9815 123.977 34.6199C123.593 34.2583 123.401 33.7611 123.401 33.1283V24.7891C123.401 23.5913 123.152 22.7212 122.655 22.1788C122.18 21.6138 121.423 21.3313 120.384 21.3313C119.163 21.3313 118.18 21.7155 117.434 22.4839C116.711 23.2523 116.35 24.2806 116.35 25.5687V33.1283C116.35 33.7611 116.158 34.2583 115.773 34.6199C115.389 34.9815 114.869 35.1623 114.214 35.1623C113.559 35.1623 113.039 34.9815 112.655 34.6199C112.293 34.2583 112.112 33.7611 112.112 33.1283V12.8564C112.112 12.2688 112.304 11.7942 112.688 11.4326C113.095 11.071 113.615 10.8902 114.248 10.8902C114.881 10.8902 115.389 11.0597 115.773 11.3987C116.158 11.7377 116.35 12.201 116.35 12.7886V20.6872C116.915 19.8058 117.66 19.1391 118.587 18.6871C119.536 18.2125 120.61 17.9752 121.807 17.9752Z" fill="white"/>
<path d="M142.993 35.264C140.688 35.264 138.666 34.7668 136.925 33.7724C135.208 32.7781 133.886 31.3543 132.959 29.5011C132.032 27.6479 131.569 25.4783 131.569 22.9924C131.569 20.5064 132.032 18.3481 132.959 16.5176C133.886 14.6644 135.208 13.2406 136.925 12.2462C138.666 11.2518 140.688 10.7546 142.993 10.7546C144.485 10.7546 145.886 10.9806 147.197 11.4326C148.508 11.862 149.672 12.4948 150.689 13.331C150.982 13.557 151.186 13.7943 151.299 14.0429C151.412 14.2915 151.468 14.5966 151.468 14.9582C151.468 15.4554 151.333 15.8735 151.061 16.2125C150.79 16.5515 150.463 16.721 150.078 16.721C149.626 16.721 149.163 16.5628 148.688 16.2464C147.717 15.5232 146.813 15.026 145.977 14.7548C145.14 14.461 144.214 14.3141 143.197 14.3141C140.846 14.3141 139.061 15.0486 137.841 16.5176C136.643 17.9865 136.044 20.1448 136.044 22.9924C136.044 25.8625 136.643 28.0321 137.841 29.5011C139.061 30.9701 140.846 31.7046 143.197 31.7046C144.169 31.7046 145.061 31.5577 145.875 31.2639C146.711 30.9701 147.649 30.4729 148.688 29.7723C148.914 29.6367 149.14 29.5237 149.366 29.4333C149.592 29.3429 149.83 29.2977 150.078 29.2977C150.463 29.2977 150.79 29.4672 151.061 29.8062C151.333 30.1452 151.468 30.5633 151.468 31.0605C151.468 31.3995 151.412 31.7046 151.299 31.9758C151.186 32.2244 150.982 32.4617 150.689 32.6877C149.672 33.5238 148.508 34.1679 147.197 34.6199C145.886 35.0493 144.485 35.264 142.993 35.264Z" fill="white"/>
<path d="M157.019 35.1623C156.409 35.1623 155.9 34.9928 155.493 34.6538C155.109 34.2922 154.917 33.7837 154.917 33.1283V12.8903C154.917 12.2349 155.109 11.7377 155.493 11.3987C155.9 11.0597 156.409 10.8902 157.019 10.8902C157.629 10.8902 158.137 11.0597 158.544 11.3987C158.951 11.7377 159.154 12.2349 159.154 12.8903V33.1283C159.154 33.7837 158.951 34.2922 158.544 34.6538C158.137 34.9928 157.629 35.1623 157.019 35.1623Z" fill="white"/>
<path d="M171.084 35.2301C169.389 35.2301 167.897 34.8798 166.609 34.1792C165.344 33.4786 164.36 32.473 163.66 31.1622C162.959 29.8514 162.609 28.3259 162.609 26.5857C162.609 24.8456 162.959 23.3314 163.66 22.0432C164.36 20.7324 165.344 19.7267 166.609 19.0261C167.897 18.3255 169.389 17.9752 171.084 17.9752C172.779 17.9752 174.259 18.3255 175.525 19.0261C176.813 19.7267 177.796 20.7324 178.474 22.0432C179.175 23.3314 179.525 24.8456 179.525 26.5857C179.525 28.3259 179.175 29.8514 178.474 31.1622C177.796 32.473 176.813 33.4786 175.525 34.1792C174.259 34.8798 172.779 35.2301 171.084 35.2301ZM171.05 31.9419C172.429 31.9419 173.479 31.4899 174.203 30.5859C174.926 29.6819 175.287 28.3485 175.287 26.5857C175.287 24.8456 174.926 23.5235 174.203 22.6195C173.479 21.6929 172.44 21.2296 171.084 21.2296C169.728 21.2296 168.677 21.6929 167.931 22.6195C167.208 23.5235 166.846 24.8456 166.846 26.5857C166.846 28.3485 167.208 29.6819 167.931 30.5859C168.654 31.4899 169.694 31.9419 171.05 31.9419Z" fill="white"/>
<path d="M190.379 35.2301C188.73 35.2301 187.272 34.8798 186.006 34.1792C184.763 33.4786 183.803 32.4843 183.125 31.1961C182.447 29.9079 182.108 28.405 182.108 26.6874C182.108 24.9699 182.458 23.4557 183.159 22.1449C183.882 20.8115 184.888 19.7832 186.176 19.06C187.464 18.3368 188.944 17.9752 190.617 17.9752C191.498 17.9752 192.379 18.0995 193.261 18.3481C194.165 18.5967 194.956 18.9357 195.634 19.3651C196.357 19.8397 196.719 20.4386 196.719 21.1618C196.719 21.659 196.594 22.0658 196.346 22.3822C196.12 22.676 195.815 22.8229 195.43 22.8229C195.182 22.8229 194.922 22.7664 194.651 22.6534C194.38 22.5404 194.108 22.4048 193.837 22.2466C193.34 21.9528 192.865 21.7268 192.413 21.5686C191.961 21.3878 191.442 21.2974 190.854 21.2974C189.453 21.2974 188.368 21.7607 187.6 22.6873C186.854 23.5913 186.481 24.9021 186.481 26.6196C186.481 28.3146 186.854 29.6254 187.6 30.552C188.368 31.456 189.453 31.908 190.854 31.908C191.419 31.908 191.916 31.8289 192.346 31.6707C192.798 31.4899 193.295 31.2526 193.837 30.9588C194.176 30.7554 194.47 30.6085 194.719 30.5181C194.967 30.4051 195.216 30.3486 195.464 30.3486C195.826 30.3486 196.131 30.5068 196.38 30.8232C196.628 31.1396 196.752 31.5351 196.752 32.0097C196.752 32.3939 196.662 32.7329 196.481 33.0266C196.323 33.2978 196.052 33.5464 195.668 33.7724C194.967 34.2244 194.154 34.586 193.227 34.8572C192.3 35.1058 191.351 35.2301 190.379 35.2301Z" fill="white"/>
<path d="M214.322 31.6707C214.774 32.1001 215 32.586 215 33.1283C215 33.6481 214.808 34.1114 214.424 34.5182C214.062 34.925 213.633 35.1284 213.136 35.1284C212.638 35.1284 212.175 34.925 211.746 34.5182L203.813 27.3315V33.1283C203.813 33.7837 203.61 34.2809 203.203 34.6199C202.796 34.9589 202.288 35.1284 201.677 35.1284C201.067 35.1284 200.559 34.9589 200.152 34.6199C199.768 34.2809 199.576 33.7837 199.576 33.1283V12.8903C199.576 12.2349 199.768 11.7377 200.152 11.3987C200.559 11.0597 201.067 10.8902 201.677 10.8902C202.288 10.8902 202.796 11.0597 203.203 11.3987C203.61 11.7377 203.813 12.2349 203.813 12.8903V25.6365L211.068 18.6871C211.474 18.2803 211.938 18.0769 212.458 18.0769C212.977 18.0769 213.429 18.269 213.814 18.6532C214.198 19.0374 214.39 19.4894 214.39 20.0092C214.39 20.529 214.175 21.0036 213.746 21.433L208.423 26.3823L214.322 31.6707Z" fill="white"/>
</svg>
